<?xml version="1.0" encoding="iso-8859-1"?>
<!-- Generator: Adobe Illustrator 16.0.0, SVG Export Plug-In . SVG Version: 6.00 Build 0)  -->
<!DOCTYPE svg PUBLIC "-//W3C//DTD SVG 1.1//EN" "http://www.w3.org/Graphics/SVG/1.1/DTD/svg11.dtd">
<svg version="1.1" xmlns="http://www.w3.org/2000/svg" xmlns:xlink="http://www.w3.org/1999/xlink" x="0px" y="0px" width="60px"
	 height="380px" viewBox="0 0 60 380" style="enable-background:new 0 0 60 380;" xml:space="preserve">
<g id="svg14650" xmlns:dc="http://purl.org/dc/elements/1.1/" xmlns:cc="http://creativecommons.org/ns#" xmlns:rdf="http://www.w3.org/1999/02/22-rdf-syntax-ns#" xmlns:svg="http://www.w3.org/2000/svg" xmlns:sodipodi="http://sodipodi.sourceforge.net/DTD/sodipodi-0.dtd" xmlns:inkscape="http://www.inkscape.org/namespaces/inkscape" sodipodi:docname="MentalGates.svg" inkscape:version="0.91 r13725">
	
		<sodipodi:namedview  objecttolerance="2" showgrid="true" inkscape:cy="314.77825" inkscape:cx="-32.586398" inkscape:zoom="7.919596" borderopacity="1.0" bordercolor="#666666" pagecolor="#ffffff" id="base" inkscape:window-maximized="1" inkscape:window-y="-4" inkscape:window-x="-4" inkscape:window-height="1061" inkscape:current-layer="layer1" inkscape:pageshadow="2" inkscape:document-units="px" inkscape:pageopacity="0.0" inkscape:window-width="1920" units="px">
		<inkscape:grid  empspacing="3" spacingy="5.0000001" spacingx="4.9999999" id="grid15198" type="xygrid"></inkscape:grid>
	</sodipodi:namedview>
	<g id="layer1" transform="translate(0,-672.36216)" inkscape:label="Layer 1" inkscape:groupmode="layer">
		
			<rect id="rect15200" y="672.425" sodipodi:insensitive="true" style="fill:#FFD558;fill-opacity:0.8521;" width="60" height="380">
		</rect>
		<path id="path16413" inkscape:connector-curvature="0" style="display:none;" d="M14.389,726.027v4.661h-1.06v-4.661H14.389z"/>
		<path id="path16415" inkscape:connector-curvature="0" style="display:none;" d="M17.761,728.126v2.561H17.06v-2.439
			c0-0.28-0.213-0.42-0.64-0.42c-0.208,0.024-0.358,0.09-0.449,0.195c-0.089,0.104-0.143,0.189-0.161,0.254v2.41h-0.94v-3.33h0.94
			v0.271c0.013-0.008,0.057-0.037,0.132-0.088c0.077-0.051,0.184-0.097,0.322-0.139c0.14-0.042,0.302-0.063,0.486-0.063
			c0.347,0,0.602,0.08,0.764,0.239C17.679,727.735,17.761,727.918,17.761,728.126L17.761,728.126z"/>
		<path id="path16406" inkscape:connector-curvature="0" style="display:none;" d="M42.027,726.03c0.486,0,0.879,0.088,1.177,0.264
			c0.298,0.174,0.511,0.433,0.64,0.776s0.193,0.777,0.193,1.301c0,0.539-0.071,0.985-0.213,1.338
			c-0.142,0.352-0.361,0.613-0.659,0.784c-0.296,0.171-0.679,0.256-1.147,0.256c-0.451,0-0.82-0.084-1.111-0.251
			c-0.289-0.167-0.503-0.427-0.642-0.779c-0.138-0.352-0.208-0.801-0.208-1.348c0.006-0.781,0.169-1.366,0.491-1.753
			C40.872,726.231,41.365,726.035,42.027,726.03L42.027,726.03z M41.156,728.371c0.018,0.545,0.075,0.968,0.173,1.27
			s0.327,0.454,0.688,0.459c0.268,0,0.466-0.081,0.596-0.242c0.132-0.163,0.215-0.363,0.249-0.601
			c0.036-0.239,0.054-0.528,0.054-0.867c0-0.347-0.016-0.634-0.047-0.862c-0.029-0.228-0.107-0.426-0.236-0.593
			c-0.129-0.169-0.324-0.255-0.586-0.256c-0.373,0-0.614,0.152-0.725,0.457C41.211,727.44,41.156,727.852,41.156,728.371
			L41.156,728.371z"/>
		<path id="path16408" inkscape:connector-curvature="0" style="display:none;" d="M45.343,729.77c0,0.138,0.051,0.253,0.151,0.344
			c0.103,0.091,0.229,0.137,0.379,0.137c0.247-0.007,0.424-0.065,0.529-0.176c0.105-0.111,0.17-0.203,0.19-0.276v-2.419h0.7v3.33
			h-0.7v-0.31c-0.063,0.054-0.2,0.121-0.413,0.2c-0.211,0.08-0.503,0.12-0.876,0.12c-0.276-0.01-0.496-0.094-0.659-0.251
			c-0.161-0.158-0.242-0.381-0.242-0.669v-2.419h0.94V729.77L45.343,729.77z"/>
		<path id="path16410" inkscape:connector-curvature="0" style="display:none;" d="M49.142,727.8v1.931
			c0,0.192,0.058,0.329,0.171,0.41c0.082,0.065,0.235,0.098,0.461,0.098v0.471c-0.02,0-0.054,0-0.104,0c-0.052,0-0.11,0-0.176,0
			c-0.428,0-0.741-0.073-0.94-0.22c-0.234-0.16-0.352-0.43-0.352-0.811v-1.89h-0.629v-0.42h0.629v-1.331h0.94v1.331h0.632v0.42
			h-0.632V727.8z"/>
		<path id="path17046" inkscape:connector-curvature="0" d="M23.09,679.29v2.52c0,0.032-0.103,0.099-0.308,0.201
			c-0.202,0.103-0.51,0.198-0.923,0.286c-0.41,0.085-0.909,0.128-1.498,0.128c-0.774-0.017-1.385-0.16-1.834-0.429
			c-0.447-0.269-0.763-0.671-0.949-1.208c-0.186-0.54-0.278-1.249-0.278-2.128c0.02-0.708,0.127-1.303,0.322-1.783
			c0.195-0.483,0.505-0.854,0.93-1.113s0.982-0.394,1.674-0.403c0.656,0,1.229,0.041,1.717,0.121c0.488,0.078,0.74,0.138,0.754,0.18
			l0.271,1.124l0,0c0-0.007-0.081-0.056-0.242-0.146c-0.176-0.098-0.406-0.185-0.692-0.26c-0.285-0.078-0.633-0.117-1.043-0.117
			c-0.19,0-0.34,0.004-0.451,0.014c-1.001,0.063-1.501,0.858-1.501,2.384c0,0.527,0.023,0.989,0.069,1.384
			c0.046,0.393,0.156,0.732,0.33,1.018s0.431,0.445,0.773,0.479c0.417,0,0.731-0.038,0.941-0.113s0.34-0.138,0.392-0.187v-1.952
			H23.09L23.09,679.29z"/>
		<path id="path17048" inkscape:connector-curvature="0" d="M26.774,682.366v-0.523c-0.039,0.09-0.171,0.202-0.396,0.337
			c-0.223,0.134-0.601,0.201-1.136,0.201c-0.456-0.017-0.836-0.134-1.139-0.352s-0.458-0.561-0.465-1.029
			c0-0.503,0.179-0.88,0.538-1.131c0.361-0.251,0.902-0.404,1.622-0.458c0.332-0.027,0.587-0.111,0.766-0.253
			c0.181-0.144,0.271-0.305,0.271-0.483c0-0.181-0.083-0.336-0.249-0.465c-0.164-0.13-0.386-0.194-0.667-0.194
			c-0.579,0-1.029,0.107-1.352,0.322c-0.319,0.212-0.529,0.391-0.63,0.535l0.209-0.993c0-0.017,0.076-0.069,0.227-0.157
			c0.154-0.088,0.368-0.17,0.641-0.245c0.273-0.078,0.599-0.119,0.978-0.121c0.771,0,1.329,0.132,1.674,0.396
			c0.344,0.261,0.516,0.604,0.516,1.029v3.585H26.774z M26.086,681.586c0.459-0.124,0.688-0.324,0.688-0.601v-1.139
			c-0.003,0.007-0.02,0.043-0.052,0.106c-0.031,0.061-0.104,0.122-0.216,0.183c-0.112,0.061-0.283,0.105-0.513,0.132
			c-0.391,0.054-0.688,0.142-0.894,0.264c-0.205,0.12-0.308,0.326-0.308,0.619c0.032,0.339,0.303,0.509,0.813,0.509
			C25.76,681.659,25.92,681.635,26.086,681.586L26.086,681.586z"/>
		<path id="path17050" inkscape:connector-curvature="0" d="M30.868,678.001v2.896c0,0.288,0.086,0.493,0.257,0.615
			c0.122,0.098,0.353,0.146,0.691,0.146v0.707c-0.029,0.003-0.081,0.005-0.157,0.007c-0.078,0.005-0.166,0.007-0.264,0.007
			c-0.642,0-1.112-0.11-1.41-0.33c-0.352-0.239-0.527-0.645-0.527-1.216V678h-0.945v-0.63h0.945v-1.996h1.41v1.996h0.948V678
			L30.868,678.001L30.868,678.001z"/>
		<path id="path17052" inkscape:connector-curvature="0" d="M33.398,680.118c0.022,0.264,0.113,0.597,0.271,1
			c0.158,0.403,0.448,0.614,0.868,0.634c0.513,0,0.914-0.064,1.204-0.194c0.291-0.132,0.48-0.241,0.568-0.329l-0.213,0.868
			c0,0.051-0.145,0.12-0.436,0.205c-0.291,0.083-0.66,0.125-1.109,0.125c-0.179,0-0.317-0.005-0.418-0.015
			c-0.728-0.054-1.261-0.263-1.6-0.626c-0.338-0.366-0.51-0.952-0.517-1.758c0-0.923,0.191-1.599,0.575-2.029
			c0.385-0.43,0.949-0.648,1.691-0.655c0.891,0,1.495,0.234,1.812,0.703c0.271,0.388,0.406,0.913,0.406,1.575
			c0,0.125-0.003,0.23-0.011,0.318c-0.007,0.085-0.013,0.146-0.019,0.18H33.398L33.398,680.118z M34.421,677.972
			c-0.682,0.022-1.022,0.517-1.022,1.483h2.176C35.574,678.466,35.189,677.972,34.421,677.972z"/>
		<path id="path17054" inkscape:connector-curvature="0" d="M38.16,678.572c0,0.193,0.17,0.338,0.512,0.436
			c0.345,0.096,0.697,0.186,1.059,0.271c0.361,0.083,0.674,0.225,0.938,0.425c0.267,0.197,0.405,0.505,0.418,0.923
			c0,0.61-0.165,1.048-0.494,1.314c-0.328,0.266-0.804,0.422-1.429,0.469c-0.078,0.01-0.198,0.015-0.358,0.015
			c-0.426,0-0.791-0.033-1.1-0.099c-0.307-0.068-0.521-0.125-0.641-0.168l-0.193-0.872c0.109,0.076,0.311,0.171,0.604,0.286
			s0.646,0.175,1.059,0.18c0.439,0,0.737-0.066,0.894-0.198c0.159-0.134,0.241-0.343,0.249-0.626c0-0.327-0.111-0.543-0.333-0.648
			c-0.22-0.105-0.577-0.207-1.073-0.304c-0.493-0.098-0.865-0.238-1.117-0.421c-0.249-0.183-0.373-0.505-0.373-0.967
			c0.036-0.803,0.671-1.233,1.904-1.289c0.041,0,0.099-0.002,0.172-0.007c0.073-0.005,0.126-0.007,0.157-0.007
			c0.447,0,0.808,0.032,1.081,0.095s0.459,0.116,0.557,0.158l0.237,0.809c-0.095-0.061-0.282-0.135-0.56-0.223
			c-0.279-0.09-0.656-0.136-1.132-0.136c-0.322,0-0.574,0.038-0.755,0.114C38.261,678.174,38.167,678.331,38.16,678.572
			L38.16,678.572z"/>
		<path id="path9432" inkscape:connector-curvature="0" style="display:none;" d="M11.803,689.66v2.1
			c0,0.026-0.085,0.083-0.256,0.167c-0.169,0.086-0.425,0.165-0.769,0.238c-0.342,0.071-0.758,0.107-1.248,0.107
			c-0.645-0.014-1.155-0.133-1.529-0.357c-0.373-0.224-0.636-0.56-0.791-1.007c-0.155-0.45-0.232-1.041-0.232-1.773
			c0.016-0.59,0.106-1.085,0.269-1.486c0.163-0.403,0.421-0.712,0.775-0.928s0.819-0.328,1.395-0.336
			c0.547,0,1.024,0.034,1.431,0.101c0.407,0.065,0.616,0.115,0.628,0.149l0.226,0.937l0,0c0-0.006-0.067-0.047-0.202-0.122
			c-0.146-0.082-0.338-0.154-0.577-0.217c-0.238-0.065-0.528-0.098-0.87-0.098c-0.159,0-0.284,0.004-0.375,0.012
			c-0.834,0.053-1.251,0.715-1.251,1.987c0,0.439,0.019,0.824,0.058,1.153c0.039,0.328,0.13,0.61,0.275,0.849
			c0.145,0.238,0.359,0.371,0.644,0.399c0.348,0,0.609-0.031,0.784-0.094c0.175-0.063,0.284-0.115,0.327-0.156v-1.626H11.803
			L11.803,689.66z"/>
		<path id="path9434" inkscape:connector-curvature="0" style="display:none;" d="M14.873,692.223v-0.437
			c-0.033,0.075-0.143,0.169-0.33,0.281c-0.185,0.112-0.5,0.168-0.946,0.168c-0.38-0.014-0.697-0.112-0.949-0.293
			c-0.252-0.181-0.381-0.467-0.387-0.857c0-0.419,0.149-0.734,0.448-0.943c0.301-0.209,0.752-0.336,1.352-0.381
			c0.277-0.022,0.489-0.093,0.638-0.21c0.151-0.12,0.226-0.254,0.226-0.403c0-0.151-0.069-0.28-0.208-0.388
			c-0.136-0.108-0.321-0.162-0.556-0.162c-0.482,0-0.857,0.089-1.126,0.269c-0.267,0.177-0.441,0.325-0.525,0.445l0.174-0.827
			c0-0.014,0.063-0.058,0.189-0.131c0.128-0.073,0.306-0.142,0.534-0.205c0.228-0.065,0.5-0.099,0.814-0.101
			c0.643,0,1.108,0.11,1.395,0.33c0.287,0.218,0.43,0.503,0.43,0.857v2.988H14.873z M14.299,691.573
			c0.382-0.104,0.574-0.271,0.574-0.501v-0.949c-0.002,0.006-0.017,0.035-0.043,0.088c-0.026,0.051-0.086,0.102-0.18,0.152
			c-0.093,0.051-0.236,0.088-0.427,0.11c-0.325,0.044-0.574,0.118-0.745,0.22c-0.171,0.1-0.256,0.271-0.256,0.516
			c0.027,0.283,0.252,0.424,0.678,0.424C14.027,691.634,14.161,691.614,14.299,691.573L14.299,691.573z"/>
		<path id="path9436" inkscape:connector-curvature="0" style="display:none;" d="M18.285,688.585v2.414
			c0,0.24,0.071,0.411,0.214,0.513c0.102,0.082,0.294,0.123,0.577,0.122v0.589c-0.024,0.002-0.068,0.004-0.131,0.006
			c-0.065,0.004-0.138,0.006-0.22,0.006c-0.535,0-0.927-0.091-1.175-0.274c-0.293-0.2-0.439-0.537-0.439-1.013v-2.362h-0.788v-0.525
			h0.788v-1.663h1.175v1.663h0.791v0.525L18.285,688.585L18.285,688.585z"/>
		<path id="path9438" inkscape:connector-curvature="0" style="display:none;" d="M20.394,690.349
			c0.018,0.22,0.094,0.498,0.226,0.833c0.132,0.335,0.374,0.511,0.724,0.528c0.427,0,0.762-0.054,1.004-0.162
			c0.242-0.11,0.4-0.202,0.473-0.275l-0.177,0.723c0,0.043-0.121,0.1-0.363,0.171c-0.242,0.069-0.55,0.104-0.924,0.104
			c-0.148,0-0.265-0.004-0.348-0.012c-0.606-0.045-1.051-0.219-1.333-0.522c-0.281-0.305-0.424-0.793-0.43-1.465
			c0-0.769,0.16-1.333,0.479-1.691c0.321-0.358,0.792-0.54,1.41-0.546c0.743,0,1.247,0.195,1.511,0.586
			c0.226,0.323,0.339,0.761,0.339,1.312c0,0.104-0.003,0.192-0.009,0.266c-0.006,0.071-0.011,0.121-0.015,0.149H20.394
			L20.394,690.349z M21.245,688.561c-0.568,0.018-0.852,0.43-0.852,1.236h1.812C22.206,688.973,21.886,688.561,21.245,688.561z"/>
	</g>
</g>
<g id="Layer_3">
	<g>
		<path d="M12.722,86.812v4.998h-1.099v-4.998H12.722z"/>
		<path d="M14.822,86.812l2.086,3.353h0.014v-3.353h1.029v4.998h-1.099l-2.079-3.346h-0.014v3.346h-1.029v-4.998H14.822z"/>
	</g>
	<g>
		<path d="M38.213,87.293c0.112-0.319,0.273-0.599,0.483-0.836s0.468-0.425,0.773-0.56s0.649-0.203,1.032-0.203
			c0.388,0,0.732,0.068,1.036,0.203s0.56,0.322,0.771,0.56c0.209,0.238,0.371,0.517,0.482,0.836c0.112,0.32,0.168,0.667,0.168,1.04
			c0,0.364-0.056,0.704-0.168,1.019c-0.111,0.315-0.273,0.589-0.482,0.822c-0.211,0.233-0.467,0.417-0.771,0.55
			c-0.304,0.133-0.648,0.199-1.036,0.199c-0.383,0-0.727-0.066-1.032-0.199c-0.306-0.133-0.563-0.316-0.773-0.55
			c-0.21-0.233-0.371-0.507-0.483-0.822c-0.111-0.315-0.168-0.654-0.168-1.019C38.045,87.959,38.102,87.613,38.213,87.293z
			 M39.218,88.945c0.049,0.199,0.127,0.377,0.234,0.536s0.247,0.286,0.42,0.381c0.173,0.096,0.383,0.144,0.63,0.144
			c0.248,0,0.457-0.048,0.631-0.144c0.172-0.095,0.312-0.223,0.42-0.381s0.186-0.337,0.234-0.536
			c0.049-0.198,0.073-0.402,0.073-0.612c0-0.219-0.024-0.432-0.073-0.637c-0.049-0.205-0.127-0.388-0.234-0.549
			s-0.248-0.289-0.42-0.385c-0.174-0.096-0.383-0.144-0.631-0.144c-0.247,0-0.457,0.048-0.63,0.144s-0.312,0.224-0.42,0.385
			s-0.186,0.344-0.234,0.549c-0.049,0.206-0.073,0.418-0.073,0.637C39.145,88.542,39.169,88.747,39.218,88.945z"/>
		<path d="M47.426,90.429c-0.379,0.329-0.901,0.493-1.568,0.493c-0.678,0-1.201-0.163-1.572-0.49s-0.557-0.831-0.557-1.512v-3.108
			h1.1v3.108c0,0.136,0.012,0.269,0.035,0.399c0.023,0.131,0.072,0.247,0.146,0.347c0.074,0.101,0.179,0.182,0.312,0.245
			c0.133,0.063,0.311,0.094,0.535,0.094c0.392,0,0.662-0.087,0.812-0.262c0.149-0.175,0.224-0.449,0.224-0.823v-3.108h1.1v3.108
			C47.992,89.597,47.803,90.1,47.426,90.429z"/>
		<path d="M48.587,86.736v-0.924h4.095v0.924h-1.498v4.074h-1.099v-4.074H48.587z"/>
	</g>
	<g>
		<path d="M14.001,55.458c-0.065-0.105-0.147-0.197-0.245-0.276c-0.098-0.08-0.209-0.141-0.333-0.186s-0.253-0.066-0.388-0.066
			c-0.248,0-0.458,0.048-0.63,0.144c-0.172,0.096-0.312,0.224-0.42,0.385s-0.186,0.344-0.234,0.549
			c-0.049,0.206-0.073,0.418-0.073,0.637c0,0.21,0.024,0.414,0.073,0.612c0.049,0.199,0.127,0.377,0.234,0.536
			s0.248,0.286,0.42,0.381c0.173,0.096,0.383,0.144,0.63,0.144c0.336,0,0.598-0.103,0.788-0.308
			c0.189-0.206,0.304-0.476,0.346-0.812h1.064c-0.028,0.312-0.1,0.595-0.217,0.847s-0.271,0.467-0.462,0.644
			c-0.191,0.177-0.416,0.313-0.672,0.406c-0.256,0.093-0.539,0.14-0.847,0.14c-0.383,0-0.727-0.066-1.033-0.199
			c-0.306-0.133-0.563-0.316-0.773-0.55c-0.21-0.233-0.371-0.507-0.483-0.822c-0.112-0.315-0.168-0.654-0.168-1.019
			c0-0.373,0.056-0.72,0.168-1.04c0.112-0.319,0.273-0.599,0.483-0.836s0.468-0.425,0.773-0.56s0.65-0.203,1.033-0.203
			c0.275,0,0.535,0.04,0.78,0.119c0.245,0.08,0.464,0.195,0.658,0.347c0.193,0.151,0.354,0.339,0.479,0.563s0.205,0.48,0.238,0.77
			h-1.064C14.109,55.679,14.067,55.563,14.001,55.458z"/>
		<path d="M17.109,59.123l-1.617-4.998h1.127l1.113,3.514h0.014l1.127-3.514h1.134l-1.659,4.998H17.109z"/>
	</g>
	<g id="Layer_4" style="display:none;opacity:0.6;">
		<line style="display:inline;fill:none;stroke:#000000;stroke-miterlimit:10;" x1="21.09" y1="58.625" x2="21.09" y2="47.375"/>
		<line style="display:inline;fill:none;stroke:#000000;stroke-miterlimit:10;" x1="51.5" y1="90.891" x2="51.5" y2="78.297"/>
		<line style="display:inline;fill:none;stroke:#000000;stroke-miterlimit:10;" x1="19.375" y1="90.812" x2="19.375" y2="79.562"/>
		
			<line style="display:inline;fill:none;stroke:#000000;stroke-miterlimit:10;" x1="20.562" y1="143.271" x2="20.562" y2="132.021"/>
		
			<line style="display:inline;fill:none;stroke:#000000;stroke-miterlimit:10;" x1="50.973" y1="175.537" x2="50.973" y2="162.943"/>
		
			<line style="display:inline;fill:none;stroke:#000000;stroke-miterlimit:10;" x1="18.848" y1="175.458" x2="18.848" y2="164.208"/>
		
			<line style="display:inline;fill:none;stroke:#000000;stroke-miterlimit:10;" x1="20.562" y1="228.479" x2="20.562" y2="217.229"/>
		
			<line style="display:inline;fill:none;stroke:#000000;stroke-miterlimit:10;" x1="50.973" y1="260.745" x2="50.973" y2="248.151"/>
		
			<line style="display:inline;fill:none;stroke:#000000;stroke-miterlimit:10;" x1="18.848" y1="260.667" x2="18.848" y2="249.417"/>
		
			<line style="display:inline;fill:none;stroke:#000000;stroke-miterlimit:10;" x1="20.896" y1="313.646" x2="20.896" y2="302.396"/>
		
			<line style="display:inline;fill:none;stroke:#000000;stroke-miterlimit:10;" x1="51.306" y1="345.912" x2="51.306" y2="333.318"/>
		
			<line style="display:inline;fill:none;stroke:#000000;stroke-miterlimit:10;" x1="19.181" y1="345.834" x2="19.181" y2="334.584"/>
	</g>
	<g>
		<path d="M12.194,171.458v4.998h-1.099v-4.998H12.194z"/>
		<path d="M14.294,171.458l2.086,3.353h0.014v-3.353h1.029v4.998h-1.099l-2.079-3.346h-0.014v3.346h-1.029v-4.998H14.294z"/>
	</g>
	<g>
		<path d="M37.686,171.939c0.112-0.319,0.273-0.599,0.483-0.836s0.468-0.425,0.773-0.56s0.649-0.203,1.032-0.203
			c0.388,0,0.732,0.068,1.036,0.203s0.56,0.322,0.771,0.56c0.209,0.238,0.371,0.517,0.482,0.836c0.112,0.32,0.168,0.667,0.168,1.04
			c0,0.364-0.056,0.704-0.168,1.019c-0.111,0.315-0.273,0.589-0.482,0.822c-0.211,0.233-0.467,0.417-0.771,0.55
			c-0.304,0.133-0.648,0.199-1.036,0.199c-0.383,0-0.727-0.066-1.032-0.199c-0.306-0.133-0.563-0.316-0.773-0.55
			c-0.21-0.233-0.371-0.507-0.483-0.822c-0.111-0.315-0.168-0.654-0.168-1.019C37.518,172.605,37.574,172.259,37.686,171.939z
			 M38.69,173.591c0.049,0.199,0.127,0.377,0.234,0.536s0.247,0.286,0.42,0.381c0.173,0.096,0.383,0.144,0.63,0.144
			c0.248,0,0.457-0.048,0.631-0.144c0.172-0.095,0.312-0.223,0.42-0.381s0.186-0.337,0.234-0.536
			c0.049-0.198,0.073-0.402,0.073-0.612c0-0.219-0.024-0.432-0.073-0.637c-0.049-0.205-0.127-0.388-0.234-0.549
			s-0.248-0.289-0.42-0.385c-0.174-0.096-0.383-0.144-0.631-0.144c-0.247,0-0.457,0.048-0.63,0.144s-0.312,0.224-0.42,0.385
			s-0.186,0.344-0.234,0.549c-0.049,0.206-0.073,0.418-0.073,0.637C38.617,173.188,38.642,173.393,38.69,173.591z"/>
		<path d="M46.898,175.075c-0.379,0.329-0.901,0.493-1.568,0.493c-0.678,0-1.201-0.163-1.572-0.49s-0.557-0.831-0.557-1.512v-3.108
			h1.1v3.108c0,0.136,0.012,0.269,0.035,0.399c0.023,0.131,0.072,0.247,0.146,0.347c0.074,0.101,0.179,0.182,0.312,0.245
			c0.133,0.063,0.311,0.094,0.535,0.094c0.392,0,0.662-0.087,0.812-0.262c0.149-0.175,0.224-0.449,0.224-0.823v-3.108h1.1v3.108
			C47.465,174.243,47.275,174.746,46.898,175.075z"/>
		<path d="M48.06,171.382v-0.924h4.095v0.924h-1.498v4.074h-1.099v-4.074H48.06z"/>
	</g>
	<g>
		<path d="M13.474,140.104c-0.065-0.105-0.147-0.197-0.245-0.276c-0.098-0.08-0.209-0.141-0.333-0.186s-0.253-0.066-0.388-0.066
			c-0.248,0-0.458,0.048-0.63,0.144c-0.172,0.096-0.312,0.224-0.42,0.385s-0.186,0.344-0.234,0.549
			c-0.049,0.206-0.073,0.418-0.073,0.637c0,0.21,0.024,0.414,0.073,0.612c0.049,0.199,0.127,0.377,0.234,0.536
			s0.248,0.286,0.42,0.381c0.173,0.096,0.383,0.144,0.63,0.144c0.336,0,0.598-0.103,0.788-0.308
			c0.189-0.206,0.304-0.476,0.346-0.812h1.064c-0.028,0.312-0.1,0.595-0.217,0.847s-0.271,0.467-0.462,0.644
			c-0.191,0.177-0.416,0.313-0.672,0.406c-0.256,0.093-0.539,0.14-0.847,0.14c-0.383,0-0.727-0.066-1.033-0.199
			c-0.306-0.133-0.563-0.316-0.773-0.55c-0.21-0.233-0.371-0.507-0.483-0.822c-0.112-0.315-0.168-0.654-0.168-1.019
			c0-0.373,0.056-0.72,0.168-1.04c0.112-0.319,0.273-0.599,0.483-0.836s0.468-0.425,0.773-0.56s0.65-0.203,1.033-0.203
			c0.275,0,0.535,0.04,0.78,0.119c0.245,0.08,0.464,0.195,0.658,0.347c0.193,0.151,0.354,0.339,0.479,0.563s0.205,0.48,0.238,0.77
			H13.6C13.582,140.325,13.54,140.209,13.474,140.104z"/>
		<path d="M16.582,143.769l-1.617-4.998h1.127l1.113,3.514h0.014l1.127-3.514h1.134l-1.659,4.998H16.582z"/>
	</g>
	<g>
		<path d="M12.194,256.667v4.998h-1.099v-4.998H12.194z"/>
		<path d="M14.294,256.667l2.086,3.353h0.014v-3.353h1.029v4.998h-1.099l-2.079-3.347h-0.014v3.347h-1.029v-4.998H14.294z"/>
	</g>
	<g>
		<path d="M37.686,257.147c0.112-0.319,0.273-0.599,0.483-0.837c0.21-0.237,0.468-0.424,0.773-0.56s0.649-0.203,1.032-0.203
			c0.388,0,0.732,0.067,1.036,0.203s0.56,0.322,0.771,0.56c0.209,0.238,0.371,0.518,0.482,0.837c0.112,0.319,0.168,0.667,0.168,1.04
			c0,0.363-0.056,0.703-0.168,1.018c-0.111,0.315-0.273,0.59-0.482,0.822c-0.211,0.234-0.467,0.417-0.771,0.551
			c-0.304,0.133-0.648,0.199-1.036,0.199c-0.383,0-0.727-0.066-1.032-0.199c-0.306-0.134-0.563-0.316-0.773-0.551
			c-0.21-0.232-0.371-0.507-0.483-0.822c-0.111-0.314-0.168-0.654-0.168-1.018C37.518,257.814,37.574,257.467,37.686,257.147z
			 M38.69,258.799c0.049,0.199,0.127,0.377,0.234,0.536s0.247,0.286,0.42,0.382s0.383,0.143,0.63,0.143
			c0.248,0,0.457-0.047,0.631-0.143c0.172-0.096,0.312-0.223,0.42-0.382s0.186-0.337,0.234-0.536
			c0.049-0.197,0.073-0.402,0.073-0.611c0-0.22-0.024-0.432-0.073-0.638c-0.049-0.205-0.127-0.388-0.234-0.55
			c-0.107-0.16-0.248-0.289-0.42-0.385c-0.174-0.096-0.383-0.143-0.631-0.143c-0.247,0-0.457,0.047-0.63,0.143
			s-0.312,0.225-0.42,0.385c-0.107,0.162-0.186,0.345-0.234,0.55c-0.049,0.206-0.073,0.418-0.073,0.638
			C38.617,258.396,38.642,258.602,38.69,258.799z"/>
		<path d="M46.898,260.283c-0.379,0.329-0.901,0.494-1.568,0.494c-0.678,0-1.201-0.164-1.572-0.49s-0.557-0.83-0.557-1.512v-3.108
			h1.1v3.108c0,0.135,0.012,0.268,0.035,0.398s0.072,0.246,0.146,0.347s0.179,0.183,0.312,0.245
			c0.133,0.062,0.311,0.094,0.535,0.094c0.392,0,0.662-0.087,0.812-0.262c0.149-0.176,0.224-0.449,0.224-0.822v-3.108h1.1v3.108
			C47.465,259.451,47.275,259.955,46.898,260.283z"/>
		<path d="M48.06,256.591v-0.924h4.095v0.924h-1.498v4.074h-1.099v-4.074H48.06z"/>
	</g>
	<g>
		<path d="M13.474,225.312c-0.065-0.104-0.147-0.197-0.245-0.275c-0.098-0.08-0.209-0.142-0.333-0.186
			c-0.124-0.045-0.253-0.066-0.388-0.066c-0.248,0-0.458,0.047-0.63,0.143c-0.172,0.096-0.312,0.225-0.42,0.385
			c-0.107,0.162-0.186,0.345-0.234,0.55c-0.049,0.206-0.073,0.418-0.073,0.638c0,0.209,0.024,0.414,0.073,0.611
			c0.049,0.199,0.127,0.377,0.234,0.536s0.248,0.286,0.42,0.382c0.173,0.096,0.383,0.143,0.63,0.143
			c0.336,0,0.598-0.102,0.788-0.307c0.189-0.206,0.304-0.477,0.346-0.812h1.064c-0.028,0.312-0.1,0.595-0.217,0.847
			s-0.271,0.467-0.462,0.644c-0.191,0.178-0.416,0.313-0.672,0.406c-0.256,0.094-0.539,0.141-0.847,0.141
			c-0.383,0-0.727-0.066-1.033-0.199c-0.306-0.134-0.563-0.316-0.773-0.551c-0.21-0.232-0.371-0.507-0.483-0.822
			c-0.112-0.314-0.168-0.654-0.168-1.018c0-0.373,0.056-0.721,0.168-1.04c0.112-0.319,0.273-0.599,0.483-0.837
			c0.21-0.237,0.468-0.424,0.773-0.56s0.65-0.203,1.033-0.203c0.275,0,0.535,0.04,0.78,0.119s0.464,0.194,0.658,0.347
			c0.193,0.151,0.354,0.34,0.479,0.563s0.205,0.48,0.238,0.771H13.6C13.582,225.533,13.54,225.418,13.474,225.312z"/>
		<path d="M16.582,228.978l-1.617-4.998h1.127l1.113,3.515h0.014l1.127-3.515h1.134l-1.659,4.998H16.582z"/>
	</g>
	<g>
		<path d="M12.527,341.834v4.998h-1.099v-4.998H12.527z"/>
		<path d="M14.627,341.834l2.086,3.354h0.014v-3.354h1.029v4.998h-1.099l-2.079-3.346h-0.014v3.346h-1.029v-4.998H14.627z"/>
	</g>
	<g>
		<path d="M38.02,342.314c0.111-0.319,0.272-0.599,0.482-0.836c0.21-0.238,0.468-0.426,0.773-0.561s0.65-0.203,1.033-0.203
			c0.387,0,0.732,0.068,1.035,0.203c0.304,0.135,0.561,0.322,0.77,0.561c0.211,0.237,0.371,0.517,0.484,0.836
			c0.111,0.32,0.168,0.666,0.168,1.039c0,0.365-0.057,0.704-0.168,1.02c-0.113,0.314-0.273,0.589-0.484,0.822
			c-0.209,0.232-0.466,0.416-0.77,0.549c-0.303,0.133-0.648,0.199-1.035,0.199c-0.383,0-0.728-0.066-1.033-0.199
			s-0.563-0.316-0.773-0.549c-0.21-0.233-0.371-0.508-0.482-0.822c-0.113-0.315-0.168-0.654-0.168-1.02
			C37.852,342.98,37.906,342.635,38.02,342.314z M39.023,343.967c0.049,0.198,0.127,0.377,0.234,0.535s0.248,0.286,0.42,0.381
			c0.173,0.096,0.383,0.145,0.631,0.145c0.246,0,0.457-0.049,0.629-0.145c0.173-0.095,0.312-0.223,0.42-0.381
			s0.186-0.337,0.234-0.535c0.05-0.199,0.074-0.402,0.074-0.613c0-0.219-0.024-0.432-0.074-0.637
			c-0.049-0.205-0.127-0.389-0.234-0.549c-0.107-0.162-0.247-0.289-0.42-0.385c-0.172-0.096-0.383-0.145-0.629-0.145
			c-0.248,0-0.458,0.049-0.631,0.145c-0.172,0.096-0.312,0.223-0.42,0.385c-0.107,0.16-0.186,0.344-0.234,0.549
			s-0.073,0.418-0.073,0.637C38.95,343.564,38.975,343.768,39.023,343.967z"/>
		<path d="M47.23,345.451c-0.378,0.328-0.9,0.492-1.568,0.492c-0.676,0-1.199-0.162-1.57-0.489s-0.557-0.831-0.557-1.513v-3.107
			h1.099v3.107c0,0.137,0.012,0.27,0.035,0.399c0.022,0.131,0.072,0.247,0.147,0.347c0.074,0.101,0.178,0.182,0.311,0.245
			s0.312,0.095,0.535,0.095c0.393,0,0.663-0.088,0.812-0.263s0.225-0.449,0.225-0.823v-3.107h1.099v3.107
			C47.798,344.619,47.609,345.121,47.23,345.451z"/>
		<path d="M48.393,341.758v-0.924h4.096v0.924H50.99v4.074h-1.1v-4.074H48.393z"/>
	</g>
	<g>
		<path d="M13.807,310.48c-0.065-0.105-0.147-0.197-0.245-0.277c-0.098-0.079-0.209-0.141-0.333-0.186
			c-0.124-0.044-0.253-0.066-0.388-0.066c-0.248,0-0.458,0.049-0.63,0.145c-0.172,0.096-0.312,0.223-0.42,0.385
			c-0.107,0.16-0.186,0.344-0.234,0.549s-0.073,0.418-0.073,0.637c0,0.211,0.024,0.414,0.073,0.613
			c0.049,0.198,0.127,0.377,0.234,0.535s0.248,0.286,0.42,0.381c0.173,0.096,0.383,0.145,0.63,0.145
			c0.336,0,0.598-0.104,0.788-0.309c0.189-0.205,0.304-0.476,0.346-0.812h1.064c-0.028,0.312-0.1,0.595-0.217,0.847
			s-0.271,0.467-0.462,0.645c-0.191,0.177-0.416,0.312-0.672,0.406c-0.256,0.093-0.539,0.139-0.847,0.139
			c-0.383,0-0.727-0.066-1.033-0.199s-0.563-0.316-0.773-0.549c-0.21-0.233-0.371-0.508-0.483-0.822
			c-0.112-0.315-0.168-0.654-0.168-1.02c0-0.373,0.056-0.719,0.168-1.039c0.112-0.319,0.273-0.599,0.483-0.836
			c0.21-0.238,0.468-0.426,0.773-0.561s0.65-0.203,1.033-0.203c0.275,0,0.535,0.04,0.78,0.119c0.245,0.08,0.464,0.195,0.658,0.347
			c0.193,0.151,0.354,0.339,0.479,0.563s0.205,0.48,0.238,0.77h-1.064C13.915,310.701,13.873,310.585,13.807,310.48z"/>
		<path d="M16.915,314.145l-1.617-4.998h1.127l1.113,3.514h0.014l1.127-3.514h1.134l-1.659,4.998H16.915z"/>
	</g>
</g>
<g id="Layer_5" style="opacity:0.4;">
	<g>
		<line style="fill:none;stroke:#000000;stroke-miterlimit:10;" x1="0.792" y1="95.75" x2="59.208" y2="95.75"/>
		<line style="fill:none;stroke:#FFFFFF;stroke-miterlimit:10;" x1="0.792" y1="96.75" x2="59.208" y2="96.75"/>
	</g>
	<g>
		<line style="fill:none;stroke:#000000;stroke-miterlimit:10;" x1="0.792" y1="180.75" x2="59.208" y2="180.75"/>
		<line style="fill:none;stroke:#FFFFFF;stroke-miterlimit:10;" x1="0.792" y1="181.75" x2="59.208" y2="181.75"/>
	</g>
	<g>
		<line style="fill:none;stroke:#000000;stroke-miterlimit:10;" x1="0.792" y1="265.75" x2="59.208" y2="265.75"/>
		<line style="fill:none;stroke:#FFFFFF;stroke-miterlimit:10;" x1="0.792" y1="266.75" x2="59.208" y2="266.75"/>
	</g>
	<g>
		<line style="fill:none;stroke:#000000;stroke-miterlimit:10;" x1="0.792" y1="13" x2="59.208" y2="13"/>
		<line style="fill:none;stroke:#FFFFFF;stroke-miterlimit:10;" x1="0.792" y1="14" x2="59.208" y2="14"/>
	</g>
	<path style="opacity:0.8;fill:#00020C;enable-background:new    ;" d="M28.681,362.584h0.026c0.342,0.297,0.515,0.498,0.515,0.604
		c0.086,0.504,0.129,0.885,0.129,1.148v0.119c0.871-0.559,1.584-1.061,2.142-1.512c0-0.055,0.061-0.115,0.18-0.18h0.026
		c0.164,0.115,0.3,0.256,0.412,0.422c0.035,0,0.096,0.08,0.181,0.242c0.054,0,0.104,0.082,0.155,0.242
		c0.119,0.045,0.18,0.125,0.18,0.24c0.018,0,0.036,0.029,0.053,0.092c-0.014,0.08-0.031,0.121-0.053,0.121l0.025,0.061
		c-0.034,0.057-0.068,0.209-0.103,0.455c0.964-0.609,1.774-1.176,2.423-1.695c0-0.053,0.062-0.113,0.182-0.178h0.025
		c0.164,0.113,0.299,0.254,0.414,0.42c0.034,0,0.094,0.08,0.178,0.244c0.053,0,0.104,0.08,0.157,0.242
		c0.118,0.045,0.179,0.125,0.179,0.242c0.018,0,0.035,0.025,0.052,0.088c-0.013,0.082-0.03,0.121-0.052,0.121l0.024,0.061
		c-0.067,0.162-0.104,0.355-0.104,0.576v0.182l0.027,0.062c-0.154,0.229-0.332,0.574-0.539,1.027l0.024,0.061
		c0,0.211-0.171,0.625-0.517,1.24c-1.178,2.254-1.855,3.609-2.03,4.066l-0.128,0.182c0.014,0.041,0.025,0.07,0.025,0.092
		c-0.431,0.746-0.914,1.684-1.445,2.811c0,0.051-0.127,0.305-0.387,0.756c0,0.092-0.13,0.283-0.387,0.576
		c-0.134,0.246-0.253,0.398-0.359,0.451h-0.055c-0.031-0.262-0.059-0.391-0.074-0.391l0.024-0.061
		c-0.05-0.072-0.077-0.193-0.077-0.365v-0.334c0.053-0.541,0.12-1.107,0.205-1.689v-0.244c0-0.033,0.275-0.629,0.826-1.783
		c0.154-0.268,0.788-1.604,1.902-4.008l0.207-0.422v-0.031h-0.027c0.15-0.309,0.255-0.498,0.309-0.574
		c0-0.051,0.121-0.25,0.36-0.604h-0.024c-0.172,0.082-0.971,0.615-2.398,1.602c0,0.039-0.574,1.186-1.721,3.434
		c-0.205,0.543-0.365,0.816-0.492,0.816c-0.219,0.496-0.424,0.932-0.618,1.299c0,0.021-0.146,0.225-0.438,0.607
		c-0.068,0.145-0.164,0.256-0.281,0.33h-0.055c-0.033-0.262-0.059-0.391-0.076-0.391l0.026-0.062
		c-0.052-0.072-0.079-0.193-0.079-0.363v-0.334c0.053-0.543,0.122-1.105,0.207-1.691v-0.242c0-0.041,0.607-1.316,1.824-3.824h-0.025
		c0.159-0.328,0.357-0.691,0.594-1.09v-0.029h-0.026c-0.043,0-0.662,0.402-1.856,1.209c-0.082,0-0.638,1.096-1.669,3.283
		c-0.163,0.271-0.327,0.621-0.491,1.057c-0.041,0.01-0.103,0.15-0.18,0.424c-0.339,0.686-0.52,1.025-0.541,1.025h-0.025v-0.029
		c-0.104,0.023-0.155,0.041-0.155,0.061c-0.24-0.105-0.361-0.205-0.361-0.299l-0.18,0.029l-0.026-0.061l-0.052,0.029
		c-0.413-0.127-0.619-0.275-0.619-0.455v-0.15l0.155-0.303c0.109-0.256,0.18-0.479,0.207-0.666l2.262-4.58
		c0.285-0.562,0.447-0.855,0.488-0.877l1.033-2.146C28.437,363.188,28.558,362.924,28.681,362.584z M28.015,371.277l-0.074,0.15
		h0.049c0-0.035,0.019-0.086,0.054-0.15H28.015z M28.043,371.246h0.024c0.033-0.066,0.053-0.115,0.053-0.15
		C28.09,371.096,28.063,371.146,28.043,371.246z M29.249,364.338c0,0.035-0.018,0.084-0.053,0.148h0.025l0.077-0.148H29.249z
		 M30.388,373.695l-0.076,0.15h0.051c0-0.033,0.017-0.084,0.052-0.15H30.388z M30.415,373.664h0.027
		c0.033-0.064,0.052-0.113,0.052-0.148C30.463,373.516,30.437,373.566,30.415,373.664z M35.438,366.182
		c-0.119,0.424-0.215,0.635-0.283,0.635v0.061h0.025c0.063-0.039,0.158-0.26,0.284-0.662v-0.033H35.438L35.438,366.182z"/>
</g>
</svg>
