<?xml version="1.0" encoding="iso-8859-1"?>
<!-- Generator: Adobe Illustrator 16.0.0, SVG Export Plug-In . SVG Version: 6.00 Build 0)  -->
<!DOCTYPE svg PUBLIC "-//W3C//DTD SVG 1.1//EN" "http://www.w3.org/Graphics/SVG/1.1/DTD/svg11.dtd">
<svg version="1.1" xmlns="http://www.w3.org/2000/svg" xmlns:xlink="http://www.w3.org/1999/xlink" x="0px" y="0px" width="60px"
	 height="380px" viewBox="0 0 60 380" style="enable-background:new 0 0 60 380;" xml:space="preserve">
<g id="svg14650" xmlns:dc="http://purl.org/dc/elements/1.1/" xmlns:cc="http://creativecommons.org/ns#" xmlns:rdf="http://www.w3.org/1999/02/22-rdf-syntax-ns#" xmlns:svg="http://www.w3.org/2000/svg" xmlns:sodipodi="http://sodipodi.sourceforge.net/DTD/sodipodi-0.dtd" xmlns:inkscape="http://www.inkscape.org/namespaces/inkscape" sodipodi:docname="MentalCounters.svg" inkscape:version="0.91 r13725">
	
		<sodipodi:namedview  objecttolerance="2" showgrid="true" inkscape:cy="297.68338" inkscape:cx="-12.928385" inkscape:zoom="3.959798" borderopacity="1.0" bordercolor="#666666" pagecolor="#ffffff" id="base" inkscape:window-maximized="1" inkscape:window-y="-4" inkscape:window-x="-4" inkscape:window-height="1061" inkscape:current-layer="layer1" inkscape:pageshadow="2" inkscape:document-units="px" inkscape:pageopacity="0.0" inkscape:window-width="1920" units="px">
		<inkscape:grid  empspacing="3" spacingy="5.0000001" spacingx="4.9999999" id="grid15198" type="xygrid"></inkscape:grid>
	</sodipodi:namedview>
	<g id="layer1" transform="translate(0,-672.36216)" inkscape:label="Layer 1" inkscape:groupmode="layer">
		<polyline id="rect15200_1_" sodipodi:insensitive="true" style="fill:#FFD558;fill-opacity:0.8521;" points="0,672.362 
			60,672.362 60,1052.362 0,1052.362 		">
		</polyline>
		<path id="path4202" inkscape:connector-curvature="0" d="M17.056,681.901c0,0.049-0.181,0.133-0.542,0.252
			c-0.359,0.117-0.798,0.182-1.318,0.194c-1.211,0-2.057-0.307-2.538-0.919c-0.479-0.615-0.718-1.574-0.718-2.875
			c0.024-0.701,0.132-1.29,0.322-1.769c0.193-0.479,0.508-0.851,0.945-1.117s1.025-0.404,1.765-0.414
			c0.442,0,0.838,0.034,1.19,0.103c0.354,0.066,0.607,0.122,0.758,0.169l0.3,1.183c-0.129-0.09-0.361-0.203-0.696-0.337
			s-0.737-0.201-1.208-0.201c-0.649,0-1.085,0.227-1.308,0.681c-0.22,0.454-0.33,1.022-0.33,1.703c0,0.525,0.029,0.987,0.088,1.388
			c0.061,0.4,0.193,0.744,0.396,1.029c0.205,0.286,0.504,0.44,0.897,0.465c0.461,0,0.846-0.042,1.153-0.128
			c0.308-0.088,0.544-0.187,0.71-0.297c0.151-0.098,0.227-0.151,0.227-0.161c0,0-0.001,0-0.004,0L17.056,681.901L17.056,681.901z"/>
		<path id="path4204" inkscape:connector-curvature="0" d="M19.879,677.265c0.581,0,1.045,0.094,1.392,0.282
			c0.349,0.188,0.599,0.466,0.75,0.835c0.151,0.368,0.227,0.836,0.227,1.402c0,0.886-0.188,1.536-0.564,1.948
			c-0.376,0.41-0.989,0.615-1.838,0.615c-0.806-0.007-1.4-0.214-1.783-0.619c-0.381-0.405-0.571-1.048-0.571-1.93
			C17.506,678.109,18.302,677.265,19.879,677.265z M18.887,679.784c0.017,0.432,0.042,0.761,0.073,0.985
			c0.034,0.222,0.124,0.423,0.268,0.604s0.366,0.271,0.667,0.271c0.42,0,0.685-0.159,0.794-0.476c0.11-0.32,0.165-0.771,0.165-1.355
			c0-0.574-0.056-1.026-0.168-1.358c-0.11-0.335-0.374-0.502-0.791-0.502c-0.43,0.012-0.706,0.18-0.828,0.502
			C18.947,678.774,18.887,679.218,18.887,679.784L18.887,679.784z"/>
		<path id="path4206" inkscape:connector-curvature="0" d="M24.12,680.879c0,0.208,0.076,0.38,0.227,0.517
			c0.154,0.137,0.343,0.205,0.567,0.205c0.371-0.01,0.636-0.098,0.795-0.264s0.254-0.304,0.286-0.414v-3.629h1.051v4.995h-1.051
			v-0.465c-0.095,0.08-0.302,0.181-0.619,0.3c-0.317,0.12-0.755,0.18-1.314,0.18c-0.415-0.015-0.745-0.141-0.989-0.377
			c-0.242-0.237-0.363-0.571-0.363-1.004v-3.629h1.41V680.879z"/>
		<path id="path4208" inkscape:connector-curvature="0" d="M32.056,678.447v3.842h-1.051v-3.658c0-0.42-0.319-0.63-0.959-0.63
			c-0.312,0.036-0.537,0.134-0.674,0.293c-0.134,0.156-0.215,0.283-0.242,0.381v3.614h-1.41v-4.995h1.41v0.406
			c0.02-0.012,0.085-0.056,0.198-0.132c0.115-0.075,0.276-0.145,0.483-0.208c0.21-0.063,0.453-0.095,0.728-0.095
			c0.521,0,0.902,0.12,1.146,0.359C31.933,677.86,32.056,678.135,32.056,678.447z"/>
		<path id="path4210" inkscape:connector-curvature="0" d="M34.77,677.924v2.896c0,0.288,0.086,0.493,0.256,0.615
			c0.123,0.098,0.354,0.146,0.692,0.146v0.707c-0.029,0.003-0.081,0.005-0.157,0.007c-0.078,0.005-0.166,0.007-0.264,0.007
			c-0.643,0-1.112-0.11-1.41-0.33c-0.352-0.239-0.527-0.645-0.527-1.216v-2.834h-0.945v-0.63h0.945v-1.996h1.41v1.996h0.948v0.63
			L34.77,677.924L34.77,677.924z"/>
		<path id="path4212" inkscape:connector-curvature="0" d="M37.3,680.04c0.022,0.264,0.112,0.597,0.271,1
			c0.159,0.403,0.449,0.614,0.869,0.634c0.512,0,0.914-0.064,1.204-0.194c0.29-0.132,0.479-0.241,0.567-0.329l-0.212,0.868
			c0,0.051-0.146,0.12-0.437,0.205c-0.29,0.083-0.66,0.125-1.109,0.125c-0.178,0-0.316-0.005-0.417-0.015
			c-0.728-0.054-1.261-0.263-1.601-0.626c-0.337-0.366-0.509-0.952-0.516-1.758c0-0.923,0.191-1.599,0.574-2.029
			c0.386-0.43,0.949-0.648,1.691-0.655c0.892,0,1.496,0.234,1.813,0.703c0.271,0.388,0.406,0.913,0.406,1.575
			c0,0.125-0.003,0.23-0.011,0.318c-0.008,0.085-0.014,0.146-0.019,0.18H37.3L37.3,680.04z M38.322,677.894
			c-0.682,0.022-1.022,0.517-1.022,1.483h2.175C39.475,678.389,39.091,677.894,38.322,677.894z"/>
		<path id="path4214" inkscape:connector-curvature="0" d="M40.815,682.289v-4.995h1.41v0.615c0.005-0.005,0.032-0.039,0.084-0.103
			c0.054-0.066,0.134-0.134,0.238-0.205s0.247-0.138,0.429-0.201c0.192-0.081,0.438-0.121,0.736-0.121
			c0.229,0,0.373,0.01,0.432,0.029l0.121,0.722c-0.172-0.042-0.331-0.062-0.48-0.062c-0.324,0-0.594,0.061-0.809,0.183
			c-0.242,0.12-0.428,0.283-0.557,0.491c-0.13,0.208-0.194,0.398-0.194,0.571v3.076H40.815L40.815,682.289z"/>
		<path id="path4216" inkscape:connector-curvature="0" d="M45.898,678.51c0,0.193,0.171,0.338,0.513,0.436
			c0.345,0.096,0.697,0.186,1.059,0.271c0.361,0.083,0.674,0.225,0.938,0.425c0.267,0.197,0.405,0.505,0.417,0.923
			c0,0.61-0.164,1.048-0.494,1.314c-0.327,0.266-0.803,0.422-1.428,0.469c-0.078,0.01-0.198,0.015-0.359,0.015
			c-0.425,0-0.791-0.033-1.099-0.099c-0.308-0.068-0.521-0.125-0.641-0.168l-0.194-0.872c0.109,0.076,0.312,0.171,0.604,0.286
			s0.646,0.175,1.058,0.18c0.439,0,0.738-0.066,0.895-0.198c0.158-0.134,0.241-0.343,0.248-0.626c0-0.327-0.11-0.543-0.332-0.648
			c-0.221-0.105-0.578-0.207-1.074-0.304c-0.492-0.098-0.865-0.238-1.116-0.421c-0.249-0.183-0.374-0.505-0.374-0.967
			c0.037-0.803,0.672-1.233,1.904-1.289c0.042,0,0.1-0.002,0.172-0.007c0.074-0.005,0.127-0.007,0.158-0.007
			c0.447,0,0.807,0.032,1.08,0.095s0.459,0.116,0.557,0.158l0.238,0.809c-0.096-0.061-0.282-0.135-0.561-0.223
			c-0.278-0.09-0.655-0.136-1.131-0.136c-0.322,0-0.574,0.038-0.755,0.114C46,678.111,45.906,678.268,45.898,678.51L45.898,678.51z"
			/>
		<path id="path4188_1_" inkscape:connector-curvature="0" d="M54.631,750.197c-0.024,0.002-0.068,0.004-0.131,0.006
			c-0.065,0.004-0.139,0.006-0.22,0.006"/>
		<g id="flowRoot4164">
		</g>
	</g>
</g>
<g id="lines">
	<g style="opacity:0.4;">
		<line style="fill:none;stroke:#000000;stroke-miterlimit:10;" x1="1" y1="13.5" x2="58.75" y2="13.5"/>
		<line style="fill:none;stroke:#FFFFFF;stroke-miterlimit:10;" x1="1" y1="14.5" x2="58.75" y2="14.5"/>
	</g>
	<g style="opacity:0.4;">
		<line style="fill:none;stroke:#000000;stroke-miterlimit:10;" x1="1.417" y1="187.167" x2="58.75" y2="187.167"/>
		<line style="fill:none;stroke:#FFFFFF;stroke-miterlimit:10;" x1="1.417" y1="188.167" x2="58.75" y2="188.167"/>
	</g>
	<path style="opacity:0.8;fill:#00020C;enable-background:new    ;" d="M29.481,363h0.026c0.35,0.304,0.527,0.509,0.527,0.618
		c0.087,0.516,0.131,0.904,0.131,1.175v0.122c0.893-0.572,1.622-1.085,2.191-1.547c0-0.056,0.062-0.118,0.185-0.186h0.027
		c0.167,0.12,0.307,0.265,0.422,0.434c0.034,0,0.098,0.082,0.184,0.247c0.055,0,0.107,0.083,0.16,0.248
		c0.122,0.047,0.183,0.129,0.183,0.246c0.02,0,0.038,0.028,0.054,0.094c-0.014,0.082-0.03,0.124-0.054,0.124l0.025,0.062
		c-0.033,0.058-0.069,0.213-0.102,0.465c0.985-0.623,1.813-1.203,2.478-1.734c0-0.054,0.062-0.113,0.185-0.182h0.026
		c0.169,0.116,0.307,0.261,0.424,0.43c0.035,0,0.096,0.082,0.183,0.249c0.055,0,0.105,0.081,0.159,0.247
		c0.121,0.048,0.185,0.129,0.185,0.25c0.018,0,0.034,0.023,0.053,0.089c-0.013,0.083-0.031,0.124-0.053,0.124l0.025,0.062
		c-0.068,0.166-0.107,0.362-0.107,0.589v0.188l0.028,0.062c-0.159,0.233-0.34,0.587-0.554,1.051l0.025,0.063
		c0,0.214-0.172,0.638-0.526,1.267c-1.204,2.307-1.899,3.692-2.078,4.163l-0.131,0.184c0.013,0.042,0.025,0.074,0.025,0.095
		c-0.44,0.764-0.935,1.723-1.479,2.878c0,0.05-0.131,0.31-0.396,0.771c0,0.094-0.134,0.289-0.396,0.59
		c-0.137,0.253-0.259,0.407-0.368,0.462h-0.056c-0.032-0.269-0.061-0.4-0.075-0.4l0.023-0.062c-0.05-0.073-0.078-0.197-0.078-0.374
		v-0.341c0.055-0.556,0.123-1.134,0.211-1.73v-0.249c0-0.033,0.281-0.644,0.846-1.823c0.156-0.274,0.807-1.641,1.945-4.102
		l0.214-0.433v-0.03h-0.027c0.152-0.316,0.26-0.51,0.314-0.588c0-0.053,0.123-0.257,0.369-0.617H34.81
		c-0.176,0.083-0.994,0.629-2.455,1.639c0,0.041-0.587,1.212-1.76,3.514c-0.211,0.554-0.375,0.835-0.504,0.835
		c-0.225,0.507-0.434,0.951-0.632,1.328c0,0.024-0.149,0.229-0.449,0.621c-0.07,0.147-0.169,0.261-0.288,0.338h-0.056
		c-0.034-0.269-0.061-0.399-0.079-0.399l0.027-0.064c-0.051-0.072-0.081-0.196-0.081-0.371v-0.342
		c0.054-0.557,0.126-1.132,0.212-1.731v-0.248c0-0.041,0.622-1.346,1.867-3.912h-0.025c0.161-0.337,0.365-0.708,0.606-1.116v-0.029
		h-0.025c-0.045,0-0.679,0.411-1.9,1.238c-0.085,0-0.653,1.12-1.708,3.357c-0.167,0.279-0.335,0.637-0.503,1.08
		c-0.042,0.012-0.104,0.156-0.184,0.435c-0.347,0.704-0.531,1.051-0.554,1.051h-0.025v-0.029c-0.106,0.024-0.16,0.041-0.16,0.06
		c-0.245-0.107-0.369-0.208-0.369-0.304l-0.185,0.029l-0.026-0.062l-0.052,0.03c-0.424-0.132-0.635-0.283-0.635-0.466v-0.152
		l0.159-0.312c0.112-0.262,0.184-0.489,0.212-0.683l2.314-4.687c0.293-0.574,0.457-0.875,0.499-0.896l1.059-2.197
		C29.23,363.618,29.356,363.347,29.481,363z M28.799,371.896l-0.075,0.153h0.05c0-0.037,0.02-0.09,0.057-0.153H28.799z
		 M28.83,371.863h0.023c0.034-0.068,0.054-0.117,0.054-0.154C28.878,371.709,28.851,371.762,28.83,371.863z M30.062,364.795
		c0,0.036-0.019,0.087-0.054,0.151h0.026l0.078-0.151H30.062z M31.227,374.37l-0.077,0.153h0.053c0-0.035,0.017-0.085,0.052-0.153
		H31.227z M31.257,374.337h0.027c0.034-0.066,0.053-0.115,0.053-0.151C31.305,374.186,31.277,374.237,31.257,374.337z
		 M36.396,366.681c-0.122,0.435-0.22,0.651-0.289,0.651v0.061h0.023c0.065-0.04,0.162-0.265,0.292-0.677v-0.035H36.396
		L36.396,366.681z"/>
</g>
<g id="Layer_4">
	<g>
		<path d="M6.511,84.358c-0.075-0.12-0.168-0.225-0.28-0.316s-0.239-0.161-0.38-0.212c-0.142-0.051-0.29-0.076-0.444-0.076
			c-0.283,0-0.522,0.055-0.72,0.164s-0.357,0.256-0.48,0.44c-0.123,0.184-0.212,0.394-0.268,0.628
			c-0.056,0.235-0.084,0.478-0.084,0.728c0,0.24,0.028,0.474,0.084,0.7s0.145,0.431,0.268,0.612c0.123,0.181,0.283,0.327,0.48,0.436
			s0.437,0.164,0.72,0.164c0.384,0,0.684-0.117,0.9-0.352c0.216-0.235,0.348-0.544,0.396-0.928h1.216
			c-0.032,0.357-0.115,0.68-0.248,0.968s-0.31,0.533-0.528,0.736c-0.219,0.203-0.475,0.357-0.768,0.464
			c-0.293,0.107-0.616,0.16-0.968,0.16c-0.437,0-0.831-0.076-1.18-0.228c-0.35-0.152-0.644-0.361-0.884-0.628
			c-0.24-0.267-0.424-0.58-0.552-0.94S2.6,86.13,2.6,85.714c0-0.427,0.064-0.823,0.192-1.188s0.312-0.684,0.552-0.956
			c0.24-0.272,0.535-0.485,0.884-0.64c0.349-0.154,0.743-0.232,1.18-0.232c0.315,0,0.612,0.045,0.892,0.136
			c0.28,0.091,0.531,0.223,0.752,0.396s0.404,0.388,0.548,0.644c0.144,0.256,0.234,0.549,0.272,0.88H6.655
			C6.634,84.61,6.586,84.478,6.511,84.358z"/>
		<path d="M10.031,82.834v4.656h2.784v1.056h-4.04v-5.712H10.031z"/>
		<path d="M14.775,82.834v2.368l2.232-2.368h1.568l-2.232,2.256l2.448,3.456h-1.576l-1.72-2.568l-0.72,0.728v1.84h-1.256v-5.712
			H14.775z"/>
		<path d="M22.775,82.834v5.712h-1.256v-5.712H22.775z"/>
		<path d="M25.127,82.834l2.384,3.832h0.016v-3.832h1.175v5.712h-1.255l-2.376-3.824h-0.016v3.824h-1.176v-5.712H25.127z"/>
	</g>
	<g>
		<path d="M37.465,84.526c0.128-0.365,0.312-0.684,0.552-0.956c0.24-0.272,0.534-0.485,0.884-0.64
			c0.35-0.154,0.743-0.232,1.18-0.232c0.443,0,0.838,0.078,1.185,0.232c0.347,0.155,0.64,0.368,0.88,0.64s0.424,0.591,0.553,0.956
			c0.127,0.365,0.191,0.761,0.191,1.188c0,0.416-0.064,0.804-0.191,1.164c-0.129,0.36-0.312,0.673-0.553,0.94
			s-0.533,0.476-0.88,0.628s-0.741,0.228-1.185,0.228c-0.437,0-0.83-0.076-1.18-0.228s-0.644-0.361-0.884-0.628
			c-0.239-0.267-0.424-0.58-0.552-0.94s-0.191-0.748-0.191-1.164C37.273,85.287,37.337,84.891,37.465,84.526z M38.613,86.414
			c0.056,0.227,0.145,0.431,0.268,0.612s0.283,0.327,0.48,0.436s0.437,0.164,0.719,0.164c0.283,0,0.523-0.055,0.721-0.164
			s0.357-0.255,0.48-0.436c0.122-0.181,0.211-0.385,0.268-0.612s0.084-0.46,0.084-0.7c0-0.25-0.027-0.493-0.084-0.728
			c-0.057-0.234-0.146-0.444-0.268-0.628c-0.123-0.184-0.283-0.331-0.48-0.44s-0.438-0.164-0.721-0.164
			c-0.282,0-0.521,0.055-0.719,0.164s-0.357,0.256-0.48,0.44s-0.212,0.394-0.268,0.628c-0.057,0.235-0.084,0.478-0.084,0.728
			C38.529,85.954,38.557,86.188,38.613,86.414z"/>
		<path d="M47.945,88.11c-0.433,0.376-1.029,0.564-1.793,0.564c-0.773,0-1.371-0.187-1.795-0.56
			c-0.424-0.373-0.637-0.949-0.637-1.728v-3.552h1.256v3.552c0,0.155,0.014,0.307,0.041,0.456c0.025,0.149,0.082,0.281,0.168,0.396
			c0.084,0.115,0.203,0.208,0.355,0.28c0.152,0.072,0.355,0.108,0.611,0.108c0.449,0,0.758-0.1,0.929-0.3
			c0.171-0.2,0.256-0.513,0.256-0.94v-3.552h1.256v3.552C48.593,87.159,48.377,87.734,47.945,88.11z"/>
		<path d="M49.225,83.89v-1.056h4.681v1.056h-1.712v4.656h-1.256V83.89H49.225z"/>
	</g>
	<g>
		<path d="M29.132,142.167c0.256,0,0.487,0.042,0.692,0.124c0.205,0.083,0.381,0.196,0.528,0.34c0.146,0.144,0.259,0.311,0.335,0.5
			c0.078,0.189,0.117,0.394,0.117,0.612c0,0.336-0.071,0.627-0.213,0.872c-0.141,0.246-0.372,0.432-0.692,0.56v0.016
			c0.155,0.043,0.283,0.108,0.384,0.196c0.101,0.088,0.184,0.192,0.248,0.312c0.063,0.12,0.11,0.252,0.14,0.396
			s0.049,0.288,0.061,0.432c0.005,0.091,0.01,0.197,0.016,0.32c0.006,0.123,0.015,0.248,0.027,0.376
			c0.014,0.128,0.035,0.249,0.064,0.364s0.073,0.212,0.133,0.292h-1.257c-0.069-0.181-0.112-0.397-0.128-0.648
			s-0.04-0.491-0.072-0.72c-0.043-0.298-0.133-0.517-0.272-0.656s-0.366-0.208-0.68-0.208h-1.256v2.232h-1.256v-5.712H29.132z
			 M28.684,144.75c0.288,0,0.504-0.064,0.648-0.192c0.144-0.128,0.216-0.336,0.216-0.624c0-0.277-0.072-0.479-0.216-0.604
			c-0.144-0.125-0.36-0.188-0.648-0.188h-1.376v1.608H28.684z"/>
		<path d="M36.1,142.167v1.056h-3.016v1.224h2.768v0.976h-2.768v1.4h3.08v1.056h-4.336v-5.712H36.1z"/>
		<path d="M37.973,146.47c0.068,0.134,0.16,0.242,0.275,0.324s0.249,0.144,0.404,0.184c0.154,0.04,0.314,0.06,0.479,0.06
			c0.112,0,0.231-0.009,0.36-0.028c0.128-0.019,0.248-0.055,0.359-0.108c0.112-0.053,0.205-0.126,0.28-0.22s0.112-0.212,0.112-0.356
			c0-0.155-0.049-0.28-0.148-0.376c-0.099-0.096-0.228-0.176-0.388-0.24s-0.341-0.12-0.544-0.168s-0.408-0.101-0.616-0.16
			c-0.214-0.053-0.421-0.119-0.624-0.196s-0.384-0.177-0.544-0.3c-0.16-0.123-0.289-0.276-0.388-0.46
			c-0.1-0.184-0.148-0.406-0.148-0.668c0-0.293,0.062-0.548,0.188-0.764c0.126-0.216,0.29-0.396,0.492-0.54
			c0.203-0.144,0.433-0.251,0.688-0.32s0.513-0.104,0.769-0.104c0.299,0,0.585,0.034,0.859,0.1c0.275,0.067,0.519,0.175,0.732,0.324
			c0.213,0.149,0.383,0.34,0.508,0.572s0.188,0.513,0.188,0.844h-1.216c-0.011-0.171-0.046-0.312-0.108-0.424
			c-0.061-0.112-0.143-0.2-0.243-0.264c-0.102-0.064-0.218-0.109-0.349-0.136c-0.131-0.026-0.273-0.04-0.428-0.04
			c-0.102,0-0.203,0.011-0.304,0.032c-0.102,0.021-0.193,0.059-0.276,0.112c-0.082,0.053-0.15,0.12-0.203,0.2
			c-0.055,0.08-0.08,0.181-0.08,0.304c0,0.112,0.021,0.203,0.063,0.272c0.042,0.069,0.126,0.133,0.252,0.192
			c0.125,0.059,0.299,0.117,0.521,0.176c0.221,0.059,0.51,0.133,0.867,0.224c0.107,0.021,0.255,0.06,0.444,0.116
			c0.188,0.056,0.378,0.146,0.563,0.268c0.188,0.123,0.349,0.287,0.484,0.492c0.137,0.205,0.204,0.468,0.204,0.788
			c0,0.261-0.051,0.504-0.151,0.728c-0.102,0.224-0.252,0.417-0.453,0.58c-0.199,0.163-0.447,0.29-0.744,0.38
			c-0.295,0.09-0.639,0.136-1.027,0.136c-0.314,0-0.62-0.039-0.916-0.116c-0.296-0.078-0.558-0.199-0.784-0.364
			c-0.227-0.165-0.407-0.376-0.54-0.632c-0.133-0.256-0.197-0.56-0.191-0.912h1.216C37.868,146.174,37.902,146.337,37.973,146.47z"
			/>
		<path d="M46.477,142.167v1.056H43.46v1.224h2.769v0.976H43.46v1.4h3.08v1.056h-4.337v-5.712H46.477z"/>
		<path d="M46.939,143.223v-1.056h4.681v1.056h-1.712v4.656h-1.256v-4.656H46.939z"/>
	</g>
	<g>
		<path d="M6.511,274.357c-0.075-0.119-0.168-0.225-0.28-0.315s-0.239-0.161-0.38-0.212c-0.142-0.051-0.29-0.076-0.444-0.076
			c-0.283,0-0.522,0.055-0.72,0.164s-0.357,0.256-0.48,0.439c-0.123,0.185-0.212,0.395-0.268,0.629s-0.084,0.477-0.084,0.728
			c0,0.24,0.028,0.474,0.084,0.7s0.145,0.431,0.268,0.611c0.123,0.182,0.283,0.327,0.48,0.437s0.437,0.164,0.72,0.164
			c0.384,0,0.684-0.117,0.9-0.353c0.216-0.234,0.348-0.543,0.396-0.928h1.216c-0.032,0.357-0.115,0.68-0.248,0.969
			c-0.133,0.287-0.31,0.533-0.528,0.735c-0.219,0.202-0.475,0.357-0.768,0.464c-0.293,0.107-0.616,0.16-0.968,0.16
			c-0.437,0-0.831-0.076-1.18-0.229c-0.35-0.151-0.644-0.361-0.884-0.627c-0.24-0.268-0.424-0.58-0.552-0.94S2.6,276.13,2.6,275.714
			c0-0.427,0.064-0.823,0.192-1.188s0.312-0.684,0.552-0.955c0.24-0.272,0.535-0.486,0.884-0.641
			c0.349-0.154,0.743-0.232,1.18-0.232c0.315,0,0.612,0.046,0.892,0.137c0.28,0.091,0.531,0.223,0.752,0.396
			c0.221,0.173,0.404,0.387,0.548,0.644c0.144,0.256,0.234,0.55,0.272,0.88H6.655C6.634,274.609,6.586,274.479,6.511,274.357z"/>
		<path d="M10.031,272.834v4.656h2.784v1.056h-4.04v-5.712H10.031z"/>
		<path d="M14.775,272.834v2.367l2.232-2.367h1.568l-2.232,2.256l2.448,3.456h-1.576l-1.72-2.567l-0.72,0.728v1.84h-1.256v-5.712
			H14.775z"/>
		<path d="M22.775,272.834v5.712h-1.256v-5.712H22.775z"/>
		<path d="M25.127,272.834l2.384,3.832h0.016v-3.832h1.175v5.712h-1.255l-2.376-3.824h-0.016v3.824h-1.176v-5.712H25.127z"/>
	</g>
	<g>
		<path d="M37.465,274.525c0.128-0.365,0.312-0.684,0.552-0.955c0.24-0.272,0.534-0.486,0.884-0.641s0.743-0.232,1.18-0.232
			c0.443,0,0.838,0.078,1.185,0.232s0.64,0.368,0.88,0.641c0.24,0.271,0.424,0.59,0.553,0.955c0.127,0.365,0.191,0.762,0.191,1.188
			c0,0.416-0.064,0.804-0.191,1.164c-0.129,0.36-0.312,0.673-0.553,0.94c-0.24,0.266-0.533,0.476-0.88,0.627
			c-0.347,0.152-0.741,0.229-1.185,0.229c-0.437,0-0.83-0.076-1.18-0.229c-0.35-0.151-0.644-0.361-0.884-0.627
			c-0.239-0.268-0.424-0.58-0.552-0.94s-0.191-0.748-0.191-1.164C37.273,275.287,37.337,274.891,37.465,274.525z M38.613,276.414
			c0.056,0.227,0.145,0.431,0.268,0.611c0.123,0.182,0.283,0.327,0.48,0.437s0.437,0.164,0.719,0.164
			c0.283,0,0.523-0.055,0.721-0.164s0.357-0.255,0.48-0.437c0.122-0.181,0.211-0.385,0.268-0.611s0.084-0.46,0.084-0.7
			c0-0.251-0.027-0.493-0.084-0.728s-0.146-0.444-0.268-0.629c-0.123-0.184-0.283-0.33-0.48-0.439s-0.438-0.164-0.721-0.164
			c-0.282,0-0.521,0.055-0.719,0.164s-0.357,0.256-0.48,0.439c-0.123,0.185-0.212,0.395-0.268,0.629
			c-0.057,0.234-0.084,0.477-0.084,0.728C38.529,275.954,38.557,276.188,38.613,276.414z"/>
		<path d="M47.945,278.109c-0.433,0.377-1.029,0.564-1.793,0.564c-0.773,0-1.371-0.187-1.795-0.561
			c-0.424-0.373-0.637-0.949-0.637-1.728v-3.552h1.256v3.552c0,0.155,0.014,0.308,0.041,0.456c0.025,0.149,0.082,0.281,0.168,0.396
			c0.084,0.114,0.203,0.207,0.355,0.279s0.355,0.108,0.611,0.108c0.449,0,0.758-0.101,0.929-0.3c0.171-0.2,0.256-0.514,0.256-0.94
			v-3.552h1.256v3.552C48.593,277.159,48.377,277.734,47.945,278.109z"/>
		<path d="M49.225,273.891v-1.057h4.681v1.057h-1.712v4.655h-1.256v-4.655H49.225z"/>
	</g>
	<g>
		<path d="M29.132,332.042c0.256,0,0.487,0.042,0.692,0.124c0.205,0.082,0.381,0.195,0.528,0.34c0.146,0.145,0.259,0.311,0.335,0.5
			c0.078,0.189,0.117,0.394,0.117,0.611c0,0.337-0.071,0.627-0.213,0.873c-0.141,0.245-0.372,0.432-0.692,0.56v0.017
			c0.155,0.043,0.283,0.107,0.384,0.195c0.101,0.088,0.184,0.192,0.248,0.312c0.063,0.119,0.11,0.252,0.14,0.396
			s0.049,0.288,0.061,0.433c0.005,0.09,0.01,0.197,0.016,0.319c0.006,0.123,0.015,0.248,0.027,0.376
			c0.014,0.129,0.035,0.25,0.064,0.364s0.073,0.212,0.133,0.292h-1.257c-0.069-0.182-0.112-0.397-0.128-0.648
			c-0.016-0.25-0.04-0.49-0.072-0.72c-0.043-0.298-0.133-0.517-0.272-0.655s-0.366-0.209-0.68-0.209h-1.256v2.232h-1.256v-5.712
			H29.132z M28.684,334.626c0.288,0,0.504-0.063,0.648-0.192c0.144-0.128,0.216-0.336,0.216-0.623c0-0.277-0.072-0.479-0.216-0.604
			c-0.144-0.126-0.36-0.188-0.648-0.188h-1.376v1.608H28.684z"/>
		<path d="M36.1,332.042v1.056h-3.016v1.225h2.768v0.976h-2.768v1.399h3.08v1.057h-4.336v-5.712H36.1z"/>
		<path d="M37.973,336.346c0.068,0.134,0.16,0.242,0.275,0.324s0.249,0.145,0.404,0.184c0.154,0.041,0.314,0.061,0.479,0.061
			c0.112,0,0.231-0.01,0.36-0.028c0.128-0.019,0.248-0.055,0.359-0.108c0.112-0.053,0.205-0.126,0.28-0.219
			c0.075-0.094,0.112-0.213,0.112-0.356c0-0.155-0.049-0.28-0.148-0.376c-0.099-0.096-0.228-0.176-0.388-0.24
			s-0.341-0.12-0.544-0.168s-0.408-0.102-0.616-0.16c-0.214-0.053-0.421-0.119-0.624-0.195c-0.203-0.078-0.384-0.178-0.544-0.301
			s-0.289-0.275-0.388-0.46c-0.1-0.185-0.148-0.406-0.148-0.668c0-0.293,0.062-0.548,0.188-0.764c0.126-0.216,0.29-0.396,0.492-0.54
			c0.203-0.145,0.433-0.251,0.688-0.32s0.513-0.104,0.769-0.104c0.299,0,0.585,0.033,0.859,0.1c0.275,0.066,0.519,0.175,0.732,0.324
			c0.213,0.149,0.383,0.34,0.508,0.572c0.125,0.231,0.188,0.513,0.188,0.844h-1.216c-0.011-0.171-0.046-0.312-0.108-0.424
			c-0.061-0.112-0.143-0.2-0.243-0.264c-0.102-0.064-0.218-0.109-0.349-0.137c-0.131-0.026-0.273-0.04-0.428-0.04
			c-0.102,0-0.203,0.011-0.304,0.032c-0.102,0.021-0.193,0.059-0.276,0.111c-0.082,0.054-0.15,0.121-0.203,0.201
			c-0.055,0.079-0.08,0.181-0.08,0.303c0,0.113,0.021,0.203,0.063,0.272c0.042,0.069,0.126,0.134,0.252,0.192
			c0.125,0.059,0.299,0.117,0.521,0.176c0.221,0.059,0.51,0.133,0.867,0.225c0.107,0.021,0.255,0.06,0.444,0.115
			c0.188,0.057,0.378,0.146,0.563,0.268c0.188,0.123,0.349,0.287,0.484,0.492c0.137,0.205,0.204,0.469,0.204,0.789
			c0,0.261-0.051,0.504-0.151,0.728c-0.102,0.224-0.252,0.417-0.453,0.579c-0.199,0.164-0.447,0.29-0.744,0.381
			c-0.295,0.09-0.639,0.136-1.027,0.136c-0.314,0-0.62-0.038-0.916-0.116c-0.296-0.077-0.558-0.198-0.784-0.363
			c-0.227-0.166-0.407-0.377-0.54-0.633s-0.197-0.56-0.191-0.912h1.216C37.868,336.05,37.902,336.213,37.973,336.346z"/>
		<path d="M46.477,332.042v1.056H43.46v1.225h2.769v0.976H43.46v1.399h3.08v1.057h-4.337v-5.712H46.477z"/>
		<path d="M46.939,333.098v-1.056h4.681v1.056h-1.712v4.656h-1.256v-4.656H46.939z"/>
	</g>
</g>
</svg>
